<svg xmlns="http://www.w3.org/2000/svg" viewBox="0 0 32 32">
    <path d="M13.333 16c-0.295 0-0.533 0.239-0.533 0.533v0 5.333c0 0.295 0.239 0.533 0.533 0.533v0h2.133c0.878 0 1.781-0.185 2.507-0.693 0.725-0.51 1.227-1.379 1.227-2.507s-0.501-1.997-1.227-2.507c-0.725-0.509-1.629-0.693-2.507-0.693h-2.133zM13.867 17.067h1.6c0.722 0 1.419 0.167 1.893 0.501 0.475 0.331 0.773 0.794 0.773 1.632s-0.299 1.301-0.773 1.632c-0.474 0.334-1.171 0.501-1.893 0.501h-1.6v-4.267zM11.2 7.467c-0.294 0-0.533 0.239-0.533 0.533v16c0 0.294 0.239 0.533 0.533 0.533h4.8c1.749 0 3.115-0.747 4.004-1.786 0.89-1.038 1.329-2.347 1.329-3.548 0-2.24-1.35-3.401-1.897-3.802 0.153-0.203 0.102-0.126 0.235-0.371 0.309-0.576 0.595-1.472 0.595-2.761 0-1.155-0.285-2.35-1.056-3.275-0.771-0.926-2.027-1.525-3.744-1.525zM11.733 8.533h3.733c1.483 0 2.361 0.467 2.923 1.141 0.562 0.675 0.811 1.614 0.811 2.592 0 1.131-0.245 1.838-0.469 2.256s-0.379 0.512-0.379 0.512c-0.306 0.224-0.288 0.688 0.035 0.885 0 0 1.879 1.173 1.879 3.28 0 0.933-0.361 2.023-1.071 2.852-0.71 0.828-1.745 1.414-3.196 1.414h-4.267zM13.333 9.6c-0.295 0-0.533 0.239-0.533 0.533v0 4.267c0 0.295 0.239 0.533 0.533 0.533v0h2.133c0.917 0 1.639-0.333 2.077-0.859 0.437-0.525 0.59-1.186 0.59-1.808s-0.151-1.283-0.59-1.808c-0.437-0.526-1.159-0.859-2.077-0.859h-2.133zM13.867 10.667h1.6c0.683 0 1.027 0.201 1.257 0.475 0.228 0.275 0.343 0.681 0.343 1.125s-0.115 0.85-0.343 1.125c-0.229 0.274-0.576 0.475-1.257 0.475h-1.6v-3.2zM1.6 0c-0.877 0-1.6 0.723-1.6 1.6v28.8c0 0.877 0.723 1.6 1.6 1.6h28.8c0.877 0 1.6-0.723 1.6-1.6v-28.8c0-0.877-0.723-1.6-1.6-1.6h-28.8zM1.6 1.067h28.8c0.305 0 0.533 0.228 0.533 0.533v28.8c0 0.305-0.228 0.533-0.533 0.533h-28.8c-0.305 0-0.533-0.228-0.533-0.533v-28.8c0-0.305 0.228-0.533 0.533-0.533z"></path>
</svg>