<svg xmlns="http://www.w3.org/2000/svg" viewBox="0 0 32 32">
    <path d="M11.144 2.928l0.988 2.384-0.954 0.395-0.988-2.384 0.954-0.395z"></path>
    <path d="M3.321 10.19l2.384 0.988-0.395 0.954-2.384-0.988 0.395-0.954z"></path>
    <path d="M2.93 20.859l2.384-0.988 0.395 0.954-2.384 0.988-0.395-0.954z"></path>
    <path d="M11.142 29.075l-0.954-0.395 0.988-2.384 0.954 0.395-0.988 2.384z"></path>
    <path d="M20.858 29.069l-0.988-2.384 0.954-0.395 0.988 2.384-0.954 0.395z"></path>
    <path d="M28.677 21.81l-2.384-0.988 0.395-0.954 2.384 0.988-0.395 0.954z"></path>
    <path d="M29.070 11.145l-2.384 0.988-0.395-0.954 2.384-0.988 0.395 0.954z"></path>
    <path d="M20.855 2.926l0.954 0.395-0.988 2.384-0.954-0.395 0.988-2.384z"></path>
    <path d="M16 5.677c-5.692 0-10.323 4.631-10.323 10.323s4.631 10.323 10.323 10.323 10.323-4.631 10.323-10.323-4.631-10.323-10.323-10.323zM16 25.29c-5.123 0-9.29-4.168-9.29-9.29s4.168-9.29 9.29-9.29 9.29 4.168 9.29 9.29-4.168 9.29-9.29 9.29z"></path>
    <path d="M15.484 0h1.032v4.645h-1.032v-4.645z"></path>
    <path d="M5.051 4.321l3.285 3.285-0.73 0.73-3.285-3.285 0.73-0.73z"></path>
    <path d="M0 15.484h4.645v1.032h-4.645v-1.032z"></path>
    <path d="M5.051 27.679l-0.73-0.73 3.285-3.285 0.73 0.73-3.285 3.285z"></path>
    <path d="M15.484 27.355h1.032v4.645h-1.032v-4.645z"></path>
    <path d="M26.947 27.68l-3.285-3.285 0.73-0.73 3.285 3.285-0.73 0.73z"></path>
    <path d="M27.355 15.484h4.645v1.032h-4.645v-1.032z"></path>
    <path d="M26.949 4.321l0.73 0.73-3.285 3.285-0.73-0.73 3.285-3.285z"></path>
</svg>