<svg xmlns="http://www.w3.org/2000/svg" viewBox="0 0 32 32">
    <path fill="#00d8ff" style="fill: var(--color12, #00d8ff)" d="M18.857 15.974c0 1.578-1.279 2.857-2.857 2.857s-2.857-1.279-2.857-2.857c0-1.578 1.279-2.857 2.857-2.857s2.857 1.279 2.857 2.857z"></path>
    <path fill="#00d8ff" style="fill: var(--color12, #00d8ff)" d="M16 10.847c3.692 0 7.199 0.521 9.865 1.438 2.961 1.019 4.768 2.527 4.768 3.688 0 1.237-1.951 2.843-5.118 3.892-2.522 0.835-5.896 1.291-9.515 1.291-3.802 0-7.214-0.447-9.706-1.298-1.56-0.533-2.849-1.226-3.732-1.983-0.794-0.68-1.194-1.355-1.194-1.902 0-1.165 1.737-2.652 4.635-3.662 2.667-0.93 6.26-1.465 9.998-1.465v0 0 0 0zM16 9.48c-3.883 0-7.627 0.557-10.448 1.541-3.388 1.181-5.552 3.032-5.552 4.952 0 1.983 2.323 3.972 5.851 5.178 2.652 0.907 6.208 1.372 10.149 1.372 3.756 0 7.271-0.475 9.945-1.36 3.668-1.215 6.055-3.18 6.055-5.19 0-1.927-2.233-3.791-5.69-4.981-2.818-0.97-6.474-1.513-10.31-1.513v0 0 0 0zM11.535 13.426c1.844-3.198 4.047-5.976 6.175-7.828 2.362-2.056 4.57-2.868 5.576-2.288 1.072 0.618 1.488 3.11 0.815 6.378-0.536 2.602-1.827 5.752-3.635 8.887-1.899 3.294-3.991 6.026-5.974 7.76-1.242 1.085-2.486 1.855-3.582 2.242-0.985 0.348-1.77 0.358-2.244 0.084-1.009-0.582-1.429-2.829-0.857-5.844 0.527-2.775 1.859-6.155 3.726-9.393v0zM10.35 12.743c-1.94 3.364-3.327 6.885-3.885 9.821-0.669 3.525-0.147 6.324 1.517 7.283 1.718 0.991 4.602-0.028 7.409-2.482 2.111-1.845 4.29-4.692 6.258-8.106 1.876-3.253 3.221-6.536 3.79-9.294 0.78-3.785 0.27-6.834-1.471-7.838-1.669-0.963-4.4 0.041-7.157 2.441-2.248 1.957-4.545 4.853-6.461 8.176v0zM11.539 18.584c-1.85-3.195-3.156-6.491-3.698-9.259-0.601-3.074-0.202-5.392 0.803-5.974 1.071-0.62 3.438 0.264 5.933 2.479 1.986 1.764 4.071 4.455 5.884 7.588 1.905 3.29 3.228 6.467 3.739 9.051 0.32 1.618 0.366 3.080 0.154 4.223-0.191 1.027-0.574 1.712-1.048 1.987-1.008 0.584-3.165-0.175-5.491-2.176-2.141-1.843-4.404-4.684-6.277-7.919v0zM10.356 19.269c1.946 3.361 4.303 6.321 6.568 8.27 2.72 2.34 5.406 3.285 7.067 2.323 1.716-0.994 2.274-4 1.55-7.659-0.544-2.75-1.923-6.060-3.897-9.47-1.882-3.25-4.054-6.055-6.16-7.925-2.89-2.566-5.786-3.647-7.525-2.64-1.668 0.966-2.162 3.832-1.46 7.419 0.572 2.925 1.935 6.361 3.856 9.681v0z"></path>
</svg>