<svg xmlns="http://www.w3.org/2000/svg" viewBox="0 0 32 32">
    <path fill="#539e43" style="fill: var(--color9, #539e43)" d="M15.826 25.797c-0.108 0-0.21-0.029-0.304-0.080l-0.962-0.571c-0.145-0.080-0.072-0.109-0.029-0.123 0.195-0.065 0.231-0.080 0.434-0.195 0.022-0.015 0.051-0.007 0.072 0.007l0.738 0.441c0.029 0.014 0.065 0.014 0.087 0l2.886-1.671c0.029-0.014 0.043-0.043 0.043-0.080v-3.334c0-0.036-0.015-0.065-0.043-0.080l-2.886-1.664c-0.029-0.015-0.065-0.015-0.087 0l-2.886 1.664c-0.029 0.014-0.043 0.051-0.043 0.080v3.334c0 0.029 0.015 0.065 0.043 0.080l0.788 0.456c0.427 0.217 0.694-0.036 0.694-0.289v-3.291c0-0.043 0.036-0.087 0.087-0.087h0.369c0.043 0 0.087 0.036 0.087 0.087v3.291c0 0.571-0.311 0.904-0.854 0.904-0.166 0-0.297 0-0.665-0.181l-0.759-0.434c-0.188-0.108-0.304-0.311-0.304-0.528v-3.334c0-0.217 0.116-0.42 0.304-0.528l2.886-1.671c0.181-0.101 0.427-0.101 0.608 0l2.886 1.671c0.188 0.108 0.304 0.311 0.304 0.528v3.334c0 0.217-0.116 0.42-0.304 0.528l-2.886 1.671c-0.094 0.043-0.203 0.065-0.304 0.065zM16.716 23.505c-1.266 0-1.526-0.579-1.526-1.070 0-0.043 0.036-0.087 0.087-0.087h0.376c0.043 0 0.080 0.029 0.080 0.072 0.058 0.383 0.224 0.571 0.991 0.571 0.608 0 0.868-0.137 0.868-0.463 0-0.188-0.072-0.325-1.020-0.419-0.788-0.080-1.28-0.253-1.28-0.882 0-0.586 0.492-0.933 1.316-0.933 0.926 0 1.382 0.318 1.439 1.013 0 0.022-0.007 0.043-0.022 0.065-0.015 0.014-0.036 0.029-0.058 0.029h-0.376c-0.036 0-0.072-0.029-0.080-0.065-0.087-0.398-0.311-0.528-0.904-0.528-0.665 0-0.745 0.232-0.745 0.405 0 0.21 0.094 0.275 0.991 0.391 0.89 0.116 1.309 0.282 1.309 0.904-0.007 0.637-0.528 0.998-1.447 0.998z"></path>
    <path fill="#333" style="fill: var(--color10, #333)" d="M6.872 12.756c0-0.13-0.072-0.253-0.188-0.318l-3.067-1.765c-0.051-0.029-0.109-0.043-0.166-0.051h-0.029c-0.058 0-0.116 0.022-0.166 0.051l-3.067 1.765c-0.116 0.065-0.188 0.188-0.188 0.318l0.007 4.745c0 0.065 0.036 0.13 0.094 0.159 0.058 0.036 0.13 0.036 0.181 0l1.823-1.042c0.116-0.065 0.188-0.188 0.188-0.318v-2.221c0-0.13 0.072-0.253 0.188-0.318l0.774-0.448c0.058-0.036 0.123-0.051 0.188-0.051s0.13 0.015 0.181 0.051l0.774 0.448c0.116 0.065 0.188 0.188 0.188 0.318v2.221c0 0.13 0.072 0.253 0.188 0.318l1.823 1.042c0.058 0.036 0.13 0.036 0.188 0 0.058-0.029 0.094-0.094 0.094-0.159l-0.007-4.745zM21.613 6.224c-0.058-0.029-0.13-0.029-0.181 0-0.058 0.036-0.094 0.094-0.094 0.159v4.702c0 0.043-0.022 0.087-0.065 0.116-0.043 0.022-0.087 0.022-0.13 0l-0.767-0.441c-0.053-0.031-0.117-0.049-0.184-0.049s-0.131 0.018-0.186 0.050l0.002-0.001-3.067 1.772c-0.116 0.065-0.188 0.188-0.188 0.318v3.537c0 0.13 0.072 0.253 0.188 0.318l3.067 1.772c0.053 0.031 0.117 0.049 0.184 0.049s0.131-0.018 0.186-0.050l-0.002 0.001 3.067-1.772c0.116-0.065 0.188-0.188 0.188-0.318v-8.817c0-0.137-0.072-0.26-0.188-0.325l-1.83-1.020zM21.331 15.222c0 0.036-0.014 0.065-0.043 0.080l-1.049 0.608c-0.014 0.007-0.030 0.011-0.047 0.011s-0.033-0.004-0.048-0.011l0.001 0-1.049-0.608c-0.029-0.014-0.043-0.051-0.043-0.080v-1.215c0-0.036 0.014-0.065 0.043-0.080l1.049-0.608c0.014-0.007 0.030-0.011 0.047-0.011s0.033 0.004 0.048 0.011l-0.001-0 1.049 0.608c0.029 0.014 0.043 0.051 0.043 0.080v1.215zM31.819 13.978c0.116-0.065 0.181-0.188 0.181-0.318v-0.861c0-0.13-0.072-0.253-0.181-0.318l-3.045-1.765c-0.053-0.031-0.117-0.049-0.184-0.049s-0.131 0.018-0.186 0.050l0.002-0.001-3.067 1.772c-0.116 0.065-0.188 0.188-0.188 0.318v3.537c0 0.13 0.072 0.253 0.188 0.318l3.045 1.736c0.116 0.065 0.253 0.065 0.362 0l1.844-1.027c0.058-0.029 0.094-0.094 0.094-0.159s-0.036-0.13-0.094-0.159l-3.081-1.772c-0.058-0.036-0.094-0.094-0.094-0.159v-1.107c0-0.065 0.036-0.13 0.094-0.159l0.962-0.55c0.027-0.017 0.059-0.027 0.094-0.027s0.067 0.010 0.095 0.028l-0.001-0 0.962 0.55c0.058 0.036 0.094 0.094 0.094 0.159v0.868c0 0.065 0.036 0.13 0.094 0.159 0.058 0.036 0.13 0.036 0.188 0l1.823-1.063z"></path>
    <path fill="#539e43" style="fill: var(--color9, #539e43)" d="M28.543 13.812c0.010-0.007 0.023-0.011 0.036-0.011s0.026 0.004 0.036 0.011l-0-0 0.586 0.34c0.022 0.014 0.036 0.036 0.036 0.065v0.68c0 0.029-0.014 0.051-0.036 0.065l-0.586 0.34c-0.010 0.007-0.023 0.011-0.036 0.011s-0.026-0.004-0.036-0.011l0 0-0.586-0.34c-0.022-0.014-0.036-0.036-0.036-0.065v-0.68c0-0.029 0.014-0.051 0.036-0.065l0.586-0.34z"></path>
    <path fill="#000" style="fill: var(--color2, #000)" d="M12 10.731c-0.053-0.031-0.117-0.049-0.184-0.049s-0.131 0.018-0.186 0.050l0.002-0.001-3.045 1.758c-0.116 0.065-0.181 0.188-0.181 0.318v3.523c0 0.13 0.072 0.253 0.181 0.318l3.045 1.758c0.053 0.031 0.117 0.049 0.184 0.049s0.131-0.018 0.186-0.050l-0.002 0.001 3.045-1.758c0.116-0.065 0.181-0.188 0.181-0.318v-3.523c0-0.13-0.072-0.253-0.181-0.318l-3.045-1.758z"></path>
    <path fill="#000" style="fill: var(--color2, #000)" d="M15.052 12.488l-3.060-1.758c-0.027-0.014-0.058-0.026-0.091-0.035l-0.004-0.001-3.429 5.873c0.028 0.034 0.062 0.063 0.1 0.086l0.002 0.001 3.060 1.758c0.087 0.051 0.188 0.065 0.282 0.036l3.219-5.888c-0.022-0.029-0.051-0.051-0.080-0.072z"></path>
    <path fill="#000" style="fill: var(--color2, #000)" d="M11.53 10.087l-0.043 0.022h0.058l-0.014-0.022z"></path>
    <path fill="#000" style="fill: var(--color2, #000)" d="M15.060 16.647c0.087-0.051 0.152-0.137 0.181-0.231l-3.356-5.729c-0.087-0.014-0.181-0.007-0.26 0.043l-3.038 1.751 3.277 5.975c0.051-0.009 0.098-0.024 0.14-0.045l-0.003 0.001 3.060-1.765z"></path>
    <path fill="#000" style="fill: var(--color2, #000)" d="M15.342 16.59l-0.022-0.036v0.051l0.022-0.014z"></path>
    <path fill="#000" style="fill: var(--color2, #000)" d="M15.060 16.647l-3.052 1.758c-0.040 0.021-0.086 0.036-0.135 0.043l-0.002 0 0.058 0.109 3.385-1.96v-0.043l-0.087-0.145c-0.014 0.101-0.080 0.188-0.166 0.239z"></path>
    <path fill="#000" style="fill: var(--color2, #000)" d="M15.060 16.647l-3.052 1.758c-0.040 0.021-0.086 0.036-0.135 0.043l-0.002 0 0.058 0.109 3.385-1.96v-0.043l-0.087-0.145c-0.014 0.101-0.080 0.188-0.166 0.239z"></path>
</svg>