<svg xmlns="http://www.w3.org/2000/svg" viewBox="0 0 32 32">
    <path d="M15.885 0.083c-8.124 0-7.616 3.523-7.616 3.523l0.009 3.65h7.752v1.096h-10.831c0 0-5.198-0.59-5.198 7.607s4.537 7.906 4.537 7.906h2.708v-3.804c0 0-0.146-4.537 4.465-4.537h7.689c0 0 4.32 0.070 4.32-4.175v-7.019c0 0 0.656-4.247-7.834-4.247v0 0zM11.61 2.538c0.771 0 1.395 0.623 1.395 1.395s-0.623 1.395-1.395 1.395c-0.771 0-1.395-0.623-1.395-1.395s0.623-1.395 1.395-1.395v0 0z"></path>
    <path d="M16.115 31.917c8.124 0 7.616-3.523 7.616-3.523l-0.009-3.65h-7.752v-1.096h10.831c0 0 5.198 0.59 5.198-7.607s-4.537-7.906-4.537-7.906h-2.708v3.804c0 0 0.146 4.537-4.465 4.537h-7.689c0 0-4.32-0.070-4.32 4.175v7.019c0 0-0.656 4.247 7.834 4.247v0 0zM20.39 29.462c-0.771 0-1.395-0.623-1.395-1.395s0.623-1.395 1.395-1.395c0.771 0 1.395 0.623 1.395 1.395s-0.623 1.395-1.395 1.395v0 0z"></path>
</svg>