<svg xmlns="http://www.w3.org/2000/svg" viewBox="0 0 32 32">
    <path fill="#f7df1e" style="fill: var(--color1, #f7df1e)" d="M0 0h32v32h-32v-32z"></path>
    <path fill="#000" style="fill: var(--color2, #000)" d="M8.414 26.742l2.449-1.482c0.472 0.838 0.902 1.546 1.933 1.546 0.988 0 1.611-0.387 1.611-1.89v-10.225h3.007v10.267c0 3.115-1.826 4.532-4.489 4.532-2.406 0-3.802-1.246-4.511-2.749z"></path>
    <path fill="#000" style="fill: var(--color2, #000)" d="M19.048 26.419l2.449-1.418c0.645 1.053 1.482 1.826 2.964 1.826 1.246 0 2.041-0.623 2.041-1.482 0-1.031-0.816-1.396-2.191-1.997l-0.752-0.322c-2.17-0.923-3.609-2.083-3.609-4.532 0-2.255 1.718-3.974 4.404-3.974 1.912 0 3.287 0.666 4.274 2.406l-2.341 1.504c-0.516-0.924-1.074-1.289-1.933-1.289-0.881 0-1.439 0.558-1.439 1.289 0 0.902 0.559 1.267 1.847 1.826l0.752 0.322c2.556 1.096 3.995 2.212 3.995 4.726 0 2.707-2.127 4.189-4.983 4.189-2.792 0-4.597-1.332-5.477-3.072z"></path>
</svg>