<svg xmlns="http://www.w3.org/2000/svg" viewBox="0 0 32 32">
    <path fill="#3178c6" style="fill: var(--color1, #3178c6)" d="M1.499 0h29.001c0.828 0 1.499 0.671 1.499 1.499v29.001c0 0.828-0.671 1.499-1.499 1.499h-29.001c-0.828 0-1.499-0.671-1.499-1.499v-29.001c0-0.828 0.671-1.499 1.499-1.499z"></path>
    <path fill="#fff" style="fill: var(--color2, #fff)" d="M18.566 24.867v3.506c0.583 0.295 1.26 0.523 1.971 0.651l0.045 0.007c0.721 0.14 1.55 0.22 2.398 0.22 0.019 0 0.038-0 0.057-0h-0.003c0.016 0 0.035 0 0.054 0 0.826 0 1.631-0.088 2.407-0.255l-0.075 0.014c0.75-0.155 1.415-0.432 2.006-0.814l-0.023 0.014c0.563-0.367 1.019-0.854 1.339-1.426l0.011-0.020c0.314-0.643 0.497-1.399 0.497-2.198 0-0.602-0.104-1.18-0.296-1.717l0.011 0.036c-0.198-0.495-0.475-0.92-0.821-1.278l0.001 0.001c-0.372-0.383-0.794-0.715-1.256-0.987l-0.028-0.015c-0.468-0.281-1.023-0.562-1.598-0.805l-0.090-0.034q-0.686-0.285-1.234-0.553c-0.357-0.172-0.661-0.355-0.948-0.56l0.019 0.013c-0.231-0.164-0.427-0.36-0.585-0.584l-0.005-0.008c-0.13-0.194-0.207-0.432-0.207-0.688 0-0.006 0-0.013 0-0.019v0.001c-0-0.005-0-0.010-0-0.016 0-0.236 0.069-0.457 0.188-0.642l-0.003 0.005c0.136-0.204 0.312-0.372 0.517-0.494l0.007-0.004c0.239-0.143 0.516-0.255 0.811-0.32l0.018-0.003c0.314-0.073 0.674-0.115 1.044-0.115 0.017 0 0.034 0 0.052 0l-0.003-0c0.327 0.001 0.647 0.025 0.96 0.071l-0.037-0.004c0.376 0.051 0.707 0.122 1.029 0.215l-0.051-0.012c0.376 0.105 0.693 0.222 0.998 0.36l-0.043-0.017c0.33 0.148 0.611 0.309 0.876 0.494l-0.017-0.011v-3.272c-0.5-0.196-1.087-0.355-1.694-0.451l-0.048-0.006c-0.614-0.094-1.323-0.148-2.045-0.148-0.044 0-0.089 0-0.133 0.001l0.007-0c-0.016-0-0.035-0-0.054-0-0.818 0-1.613 0.098-2.373 0.283l0.069-0.014c-0.744 0.173-1.4 0.463-1.983 0.851l0.022-0.014c-0.556 0.374-1.007 0.861-1.327 1.432l-0.011 0.021c-0.311 0.577-0.494 1.264-0.494 1.992 0 0.041 0.001 0.082 0.002 0.122l-0-0.006c-0.001 0.032-0.001 0.069-0.001 0.107 0 0.975 0.341 1.871 0.909 2.575l-0.006-0.008c0.733 0.822 1.651 1.462 2.69 1.857l0.047 0.016q0.72 0.297 1.343 0.582c0.416 0.187 0.769 0.384 1.103 0.608l-0.027-0.017c0.28 0.184 0.516 0.405 0.71 0.662l0.005 0.007c0.164 0.223 0.263 0.504 0.263 0.808 0 0.005-0 0.010-0 0.015v-0.001c0 0.003 0 0.006 0 0.009 0 0.229-0.061 0.443-0.168 0.628l0.003-0.006c-0.124 0.208-0.291 0.378-0.491 0.5l-0.006 0.004c-0.239 0.148-0.516 0.263-0.811 0.33l-0.018 0.003c-0.328 0.077-0.705 0.121-1.091 0.121-0.025 0-0.051-0-0.076-0.001l0.004 0c-0.808-0.002-1.581-0.148-2.296-0.415l0.046 0.015c-0.793-0.291-1.478-0.695-2.072-1.202l0.009 0.008zM12.675 16.138h4.571v-2.888h-12.746v2.888h4.551v12.862h3.624z"></path>
</svg>