<svg xmlns="http://www.w3.org/2000/svg" viewBox="0 0 32 32">
    <path fill="#e76f00" style="fill: var(--color6, #e76f00)" d="M16.050 8.441c6.588-5.115 3.207-8.441 3.207-8.441 0.503 5.287-5.444 6.536-7.038 10.169-1.088 2.479 0.745 4.65 3.829 7.386-0.273-0.606-0.693-1.195-1.119-1.791-1.452-2.033-2.964-4.151 1.121-7.324z"></path>
    <path fill="#e76f00" style="fill: var(--color6, #e76f00)" d="M17.102 18.677c0 0 1.982-1.599 0.412-3.376-5.321-6.029 5.819-8.765 5.819-8.765-6.802 3.277-5.786 5.222-4.077 7.584 1.83 2.534-2.155 4.557-2.155 4.557z"></path>
    <path fill="#5382a1" style="fill: var(--color7, #5382a1)" d="M22.937 23.446c6.105-3.12 3.282-6.118 1.312-5.714-0.483 0.099-0.698 0.184-0.698 0.184s0.179-0.276 0.522-0.396c3.898-1.348 6.896 3.974-1.258 6.082 0 0 0.095-0.083 0.123-0.157z"></path>
    <path fill="#5382a1" style="fill: var(--color7, #5382a1)" d="M10.233 19.497c-3.82-0.502 2.095-1.883 2.095-1.883s-2.297-0.152-5.122 1.19c-3.34 1.589 8.262 2.311 14.268 0.758 0.624-0.419 1.487-0.783 1.487-0.783s-2.458 0.432-4.905 0.635c-2.995 0.247-6.21 0.295-7.823 0.082z"></path>
    <path fill="#5382a1" style="fill: var(--color7, #5382a1)" d="M11.686 22.476c-2.13-0.217-0.735-1.232-0.735-1.232-5.512 1.799 3.067 3.839 10.769 1.624-0.819-0.284-1.339-0.803-1.339-0.803-3.764 0.713-5.94 0.69-8.694 0.41z"></path>
    <path fill="#5382a1" style="fill: var(--color7, #5382a1)" d="M12.614 25.699c-2.128-0.241-0.885-0.952-0.885-0.952-5.004 1.375 3.043 4.215 9.414 1.53-1.043-0.399-1.791-0.86-1.791-0.86-2.842 0.529-4.16 0.57-6.738 0.281z"></path>
    <path fill="#5382a1" style="fill: var(--color7, #5382a1)" d="M25.939 27.339c0 0 0.92 0.746-1.014 1.322-3.677 1.095-15.304 1.426-18.534 0.044-1.161-0.497 1.016-1.186 1.701-1.331 0.714-0.152 1.123-0.124 1.123-0.124-1.291-0.895-8.346 1.756-3.584 2.516 12.988 2.071 23.677-0.933 20.308-2.427z"></path>
    <path fill="#5382a1" style="fill: var(--color7, #5382a1)" d="M28 28.968c-0.213 2.727-9.212 3.3-15.073 2.931-3.823-0.241-4.589-0.844-4.601-0.852 3.659 0.593 9.828 0.701 14.83-0.224 4.434-0.821 4.843-1.855 4.843-1.855z"></path>
</svg>