<svg xmlns="http://www.w3.org/2000/svg" viewBox="0 0 32 32">
    <path d="M26.524 25.382l-14.25 4.248c-0.052 0.016-0.112 0.026-0.174 0.026-0.331 0-0.6-0.269-0.6-0.6 0-0.042 0.004-0.083 0.012-0.122l-0.001 0.004 5.092-24.579c0.049-0.224 0.246-0.388 0.48-0.388 0.195 0 0.363 0.113 0.443 0.278l0.001 0.003 9.426 20.18c0.041 0.086 0.065 0.186 0.065 0.292 0 0.311-0.207 0.573-0.49 0.657l-0.005 0.001zM28.968 24.379l-10.911-23.366c-0.272-0.575-0.834-0.974-1.491-1.009l-0.004-0c-0.035-0.003-0.077-0.004-0.119-0.004-0.625 0-1.173 0.332-1.477 0.829l-0.004 0.008-11.832 19.332c-0.17 0.272-0.271 0.602-0.271 0.955 0 0.367 0.109 0.709 0.296 0.994l-0.004-0.007 5.786 9.037c0.336 0.515 0.91 0.851 1.563 0.851 0.188 0 0.37-0.028 0.541-0.080l-0.013 0.003 16.797-5.008c0.767-0.229 1.317-0.928 1.317-1.755 0-0.283-0.064-0.551-0.179-0.79l0.005 0.011z"></path>
</svg>