<svg xmlns="http://www.w3.org/2000/svg" viewBox="0 0 32 32">
    <path d="M14.952 0.009c-0.069 0.006-0.288 0.028-0.485 0.044-4.545 0.41-8.802 2.862-11.499 6.63-1.501 2.095-2.462 4.472-2.825 6.99-0.128 0.879-0.144 1.138-0.144 2.33s0.016 1.451 0.144 2.33c0.87 6.008 5.146 11.056 10.945 12.926 1.038 0.335 2.133 0.563 3.378 0.701 0.485 0.053 2.581 0.053 3.066 0 2.149-0.238 3.97-0.769 5.765-1.686 0.275-0.141 0.328-0.178 0.291-0.21-0.025-0.019-1.198-1.592-2.606-3.494l-2.559-3.456-3.206-4.745c-1.764-2.608-3.216-4.741-3.228-4.741-0.012-0.003-0.025 2.105-0.031 4.679-0.009 4.507-0.012 4.688-0.069 4.795-0.081 0.153-0.144 0.216-0.275 0.285-0.1 0.050-0.188 0.059-0.66 0.059h-0.541l-0.144-0.091c-0.094-0.059-0.163-0.138-0.21-0.228l-0.066-0.141 0.006-6.271 0.009-6.274 0.097-0.122c0.050-0.066 0.156-0.15 0.231-0.191 0.128-0.063 0.178-0.069 0.719-0.069 0.638 0 0.744 0.025 0.91 0.206 0.047 0.050 1.783 2.665 3.86 5.814s4.917 7.45 6.312 9.561l2.534 3.838 0.128-0.084c1.135-0.738 2.337-1.789 3.288-2.884 2.024-2.324 3.328-5.157 3.766-8.179 0.128-0.879 0.144-1.138 0.144-2.33s-0.016-1.451-0.144-2.33c-0.87-6.008-5.146-11.056-10.945-12.926-1.023-0.332-2.111-0.56-3.331-0.697-0.3-0.031-2.368-0.066-2.628-0.041v0zM21.502 9.685c0.15 0.075 0.272 0.219 0.316 0.369 0.025 0.081 0.031 1.82 0.025 5.739l-0.009 5.623-0.992-1.52-0.995-1.52v-4.088c0-2.643 0.012-4.128 0.031-4.2 0.050-0.175 0.16-0.313 0.31-0.394 0.128-0.066 0.175-0.072 0.666-0.072 0.463 0 0.544 0.006 0.648 0.063z"></path>
</svg>