<svg xmlns="http://www.w3.org/2000/svg" viewBox="0 0 32 32">
    <path fill="#2684ff" style="fill: var(--color8, #2684ff)" d="M30.663 0h-15.41c0 1.845 0.733 3.614 2.037 4.919s3.074 2.037 4.919 2.037h2.839v2.741c0.002 3.838 3.113 6.949 6.952 6.952v-15.312c0-0.738-0.599-1.337-1.337-1.337z"></path>
    <path fill="#000" style="fill: var(--color2, #000)" d="M23.039 7.678h-15.41c0.002 3.838 3.113 6.949 6.952 6.952h2.839v2.749c0.005 3.838 3.118 6.947 6.956 6.947v-15.312c0-0.738-0.599-1.337-1.337-1.337z"></path>
    <path fill="#000" style="fill: var(--color2, #000)" d="M15.41 15.352h-15.41c0 3.842 3.114 6.956 6.956 6.956h2.848v2.741c0.002 3.835 3.108 6.944 6.943 6.952v-15.312c0-0.738-0.599-1.337-1.337-1.337z"></path>
</svg>