<svg xmlns="http://www.w3.org/2000/svg" viewBox="0 0 32 32">
    <path fill="#c69" style="fill: var(--color1, #c69)" d="M0 0h32v32h-32v-32z"></path>
    <path fill="#fff" style="fill: var(--color2, #fff)" d="M16.125 5.5c-6 2.063-9.875 6.25-9.5 8.75s4.125 4.5 5.813 5.813v0c-2.188 1.125-4.938 2.813-4.875 5 0.125 3 3.375 2.063 4.75 1.188s2.75-3.313 1.875-5.875c1.938-0.5 3.625 0.125 4.125 0.5 1.938 1.375 0.938 2.938 0.25 3.188s-0.25 0.375 0.188 0.25 1.375-0.75 1.375-1.813c0-2.688-2.875-3.938-6.438-3-2.063-2.188-4.875-3.188-4.75-5.563 0.063-0.875 0.375-3.125 5.938-5.938s9.5-1.688 9 0.875c-0.75 3.875-7.5 6.5-9.875 4.25-0.125-0.25-0.563-0.438-0.313 0.25 1.25 3.125 11.375 1.688 11.813-4.938 0.125-3.5-4.938-4.438-9.375-2.938zM10.75 25.5c-1.563 0.5-1.5-0.5-1.438-0.875 0.188-1.063 1.063-2.375 3.688-3.688 0.75 2.375-0.938 4.188-2.25 4.563z"></path>
</svg>