<svg xmlns="http://www.w3.org/2000/svg" viewBox="0 0 32 32">
  <path d="M0.943 2.043c-0.382 0.096-0.676 0.391-0.838 0.839-0.096 0.266-0.145 2.89-0.063 3.439 0.080 0.539 0.307 0.877 0.755 1.124l0.199 0.11h29.967l0.292-0.146c0.673-0.335 0.725-0.522 0.725-2.621 0-2.093-0.079-2.396-0.695-2.68-0.199-0.091-29.981-0.156-30.339-0.066zM1.036 13.247c-0.401 0.069-0.793 0.43-0.936 0.862-0.069 0.207-0.078 0.431-0.078 1.908v1.674l0.115 0.256c0.226 0.504 0.582 0.772 1.12 0.842 0.7 0.091 29.637 0.026 29.868-0.068 0.745-0.302 0.875-0.709 0.875-2.725 0-2.166-0.173-2.611-1.066-2.747-0.322-0.049-29.614-0.051-29.897-0.002zM1.006 24.46c-0.393 0.064-0.757 0.403-0.901 0.838-0.126 0.382-0.126 3.422 0.001 3.804 0.113 0.341 0.411 0.653 0.759 0.792l0.263 0.106 14.833-0.002c15.506-0.002 15.005 0.004 15.38-0.198 0.582-0.313 0.637-0.536 0.637-2.603v-1.744l-0.144-0.308c-0.15-0.321-0.326-0.499-0.618-0.628-0.179-0.078-29.736-0.135-30.21-0.057z"></path>
</svg>