<svg xmlns="http://www.w3.org/2000/svg" viewBox="0 0 32 32">
    <path fill="#0065a9" style="fill: var(--color1, #0065a9)" d="M30.869 3.464l-6.589-3.172c-0.253-0.125-0.55-0.198-0.865-0.198-0.55 0-1.048 0.223-1.408 0.584l-0 0-21.57 19.665c-0.269 0.245-0.437 0.596-0.437 0.987 0 0.345 0.131 0.66 0.347 0.896l-0.001-0.001c0.029 0.031 0.057 0.061 0.088 0.088l1.761 1.6c0.236 0.215 0.55 0.347 0.896 0.347 0.304 0 0.584-0.102 0.809-0.274l-0.003 0.002 25.981-19.701c0.22-0.168 0.498-0.269 0.8-0.269 0.731 0 1.323 0.592 1.323 1.323v0-0.077c-0-0.788-0.457-1.47-1.12-1.795l-0.012-0.005z"></path>
    <path fill="#007acc" style="fill: var(--color2, #007acc)" d="M30.869 28.536l-6.589 3.173c-0.253 0.124-0.55 0.197-0.864 0.197-0.55 0-1.048-0.223-1.409-0.583l0 0-21.57-19.666c-0.269-0.245-0.437-0.596-0.437-0.987 0-0.345 0.131-0.66 0.347-0.896l-0.001 0.001c0.029-0.031 0.057-0.061 0.088-0.088l1.761-1.6c0.236-0.216 0.551-0.348 0.898-0.348 0.305 0 0.586 0.103 0.811 0.275l-0.003-0.002 25.977 19.701c0.22 0.168 0.498 0.269 0.8 0.269 0.731 0 1.323-0.592 1.323-1.323v-0 0.082c-0.003 0.786-0.458 1.465-1.12 1.789l-0.012 0.005z"></path>
    <path fill="#1f9cf0" style="fill: var(--color3, #1f9cf0)" d="M24.279 31.709c-0.253 0.124-0.55 0.197-0.864 0.197-0.55 0-1.048-0.223-1.409-0.583l0 0c0.211 0.209 0.502 0.338 0.823 0.338 0.645 0 1.168-0.521 1.171-1.166v-28.99c0-0 0-0.001 0-0.001 0-0.646-0.524-1.17-1.17-1.17-0.324 0-0.617 0.131-0.828 0.344l-0 0c0.361-0.361 0.859-0.584 1.41-0.584 0.314 0 0.611 0.073 0.875 0.202l-0.012-0.005 6.588 3.168c0.677 0.329 1.136 1.011 1.137 1.8v21.484c0 0 0 0 0 0 0 0.789-0.457 1.471-1.121 1.795l-0.012 0.005z"></path>
</svg>