<svg xmlns="http://www.w3.org/2000/svg" viewBox="0 0 32 32">
<path d="M30.225 1.801c-0.407-0.409-0.97-0.662-1.593-0.662s-1.185 0.253-1.592 0.662l-0 0-11.040 11.014-11.040-11.040c-0.408-0.408-0.971-0.66-1.593-0.66-1.244 0-2.252 1.008-2.252 2.252 0 0.622 0.252 1.185 0.66 1.593v0l11.040 11.040-11.040 11.040c-0.408 0.408-0.66 0.971-0.66 1.593 0 1.244 1.008 2.252 2.252 2.252 0.622 0 1.185-0.252 1.593-0.66l11.040-11.040 11.040 11.040c0.408 0.408 0.971 0.66 1.593 0.66 1.244 0 2.252-1.008 2.252-2.252 0-0.622-0.252-1.185-0.66-1.593v0l-11.040-11.040 11.040-11.040c0.399-0.407 0.645-0.966 0.645-1.581s-0.246-1.174-0.645-1.582l0 0z"></path>
<path d="M26.251 1.009l-10.251 10.229-10.251-10.251c-0.609-0.609-1.451-0.986-2.381-0.986-1.86 0-3.368 1.508-3.368 3.368 0 0.93 0.377 1.772 0.986 2.381l10.251 10.251-10.251 10.251c-0.609 0.609-0.986 1.451-0.986 2.381 0 1.86 1.508 3.368 3.368 3.368 0.93 0 1.772-0.377 2.381-0.986l10.251-10.251 10.251 10.251c0.609 0.609 1.451 0.986 2.381 0.986 1.86 0 3.368-1.508 3.368-3.368 0-0.93-0.377-1.772-0.986-2.381l-10.251-10.251 10.25-10.251c0.601-0.61 0.971-1.447 0.971-2.371s-0.371-1.761-0.971-2.37l-0-0c-0.609-0.61-1.451-0.988-2.381-0.988s-1.772 0.378-2.381 0.988zM27.040 1.801c0.407-0.409 0.97-0.662 1.593-0.662s1.185 0.253 1.592 0.662l0 0c0.856 0.856 0.856 2.3 0 3.159l-11.040 11.040 11.040 11.040c0.408 0.408 0.66 0.971 0.66 1.593 0 1.244-1.008 2.252-2.252 2.252-0.622 0-1.185-0.252-1.593-0.66v0l-11.040-11.040-11.040 11.040c-0.408 0.408-0.971 0.66-1.593 0.66-1.244 0-2.252-1.008-2.252-2.252 0-0.622 0.252-1.185 0.66-1.593v0l11.040-11.040-11.040-11.040c-0.408-0.408-0.66-0.971-0.66-1.593 0-1.244 1.008-2.252 2.252-2.252 0.622 0 1.185 0.252 1.593 0.66v0l11.040 11.040 11.040-11.014z"></path>
</svg>
