<svg xmlns="http://www.w3.org/2000/svg" viewBox="0 0 32 32">
    <path d="M31.133 0h-12.733c-0.533 0-1.067 0.333-1.067 0.867v2c0 0.533 0.467 1.133 1.067 1.133h5.267c0.6 0 0.933 0.667 0.467 1.067l-11.333 11.333c-0.4 0.4-0.4 1 0 1.4l1.4 1.4c0.4 0.4 1 0.4 1.4 0l11.333-11.333c0.4-0.4 1.067-0.133 1.067 0.467v5.267c0 0.533 0.533 1.133 1.067 1.133h1.933c0.533 0 1-0.6 1-1.133v-12.667c0-0.6-0.333-0.933-0.867-0.933z"></path>
    <path d="M22.867 15.667l-2.267 2.333c-0.4 0.4-0.6 0.867-0.6 1.4v7.6c0 0.533-0.467 1-1 1h-14c-0.533 0-1-0.467-1-1v-14c0-0.533 0.467-1 1-1h7.667c0.533 0 1.067-0.2 1.4-0.6l2.267-2.267c0.4-0.4 0.133-1.133-0.467-1.133h-13.2c-1.467 0-2.667 1.2-2.667 2.667v18.667c0 1.467 1.2 2.667 2.667 2.667h18.667c1.467 0 2.667-1.2 2.667-2.667v-13.2c0-0.6-0.733-0.867-1.133-0.467z"></path>
</svg>