<svg xmlns="http://www.w3.org/2000/svg" viewBox="0 0 32 32">
  <path d="M1.781 5.335c9.489-0.005 18.978 0 28.468 0.014 0.301 0.076 0.578 0.197 0.831 0.362 0.072 0.056 0.097 0.126 0.074 0.209-0.154 0.154-0.318 0.298-0.49 0.432-4.805 3.832-9.604 7.671-14.397 11.516-0.143 0.115-0.291 0.124-0.445 0.028-4.918-3.932-9.835-7.863-14.753-11.795-0.086-0.067-0.155-0.146-0.208-0.237 0.099-0.168 0.247-0.284 0.445-0.349 0.165-0.054 0.323-0.115 0.475-0.181z"></path>
  <path d="M0.059 7.399c0.117 0.004 0.216 0.046 0.297 0.125 3.463 2.807 6.926 5.614 10.39 8.421 0.068 0.058 0.117 0.127 0.148 0.209-0.052 0.091-0.122 0.17-0.208 0.237-3.403 2.685-6.797 5.38-10.182 8.086-0.12 0.093-0.248 0.172-0.386 0.237-0.068-0.008-0.102-0.045-0.104-0.112-0.020-5.697-0.020-11.395 0-17.093 0.012-0.039 0.027-0.076 0.044-0.112z"></path>
  <path d="M31.822 7.399c0.049 0 0.099 0 0.148 0 0.040 5.763 0.040 11.525 0 17.288-0.060 0.004-0.12-0-0.178-0.014-3.522-2.778-7.034-5.567-10.538-8.365-0.077-0.065-0.102-0.144-0.074-0.237 3.535-2.908 7.083-5.798 10.642-8.672z"></path>
  <path d="M11.933 17.158c0.094-0.008 0.183 0.006 0.267 0.042 1.228 1.014 2.465 2.018 3.711 3.012 0.117 0.025 0.226 0.007 0.327-0.056 1.172-0.973 2.349-1.94 3.532-2.9 0.105-0.099 0.224-0.118 0.356-0.056 3.675 2.922 7.341 5.855 10.998 8.797 0.038 0.052 0.048 0.108 0.030 0.167-0.145 0.145-0.318 0.252-0.519 0.321-0.209 0.051-0.417 0.107-0.623 0.167-9.331 0.018-18.662 0.018-27.993 0-0.362-0.062-0.698-0.182-1.009-0.363-0.197-0.146-0.187-0.285 0.030-0.418 3.628-2.911 7.26-5.816 10.894-8.714z"></path>
</svg>