<svg xmlns="http://www.w3.org/2000/svg" viewBox="0 0 32 32">
    <path d="M20.21 3.368c-0.93 0-1.684-0.754-1.684-1.684s0.754-1.684 1.684-1.684h10.105c0.93 0 1.684 0.754 1.684 1.684v10.105c0 0.93-0.754 1.684-1.684 1.684s-1.684-0.754-1.684-1.684v-6.039l-12.283 12.283c-0.658 0.658-1.724 0.658-2.382 0s-0.658-1.724 0-2.382l12.283-12.283h-6.039zM5.053 6.737c-0.93 0-1.684 0.754-1.684 1.684v18.526c0 0.93 0.754 1.684 1.684 1.684h18.526c0.93 0 1.684-0.754 1.684-1.684v-7.684c0-0.93 0.754-1.684 1.684-1.684s1.684 0.754 1.684 1.684v7.684c0 2.791-2.262 5.053-5.053 5.053h-18.526c-2.79 0-5.053-2.262-5.053-5.053v-18.526c0-2.79 2.262-5.053 5.053-5.053h7.684c0.93 0 1.684 0.754 1.684 1.684s-0.754 1.684-1.684 1.684h-7.684z"></path>
</svg>