<svg xmlns="http://www.w3.org/2000/svg" viewBox="0 0 32 32">
  <path d="M7.166 3.556c0 1.887-1.264 3.513-3.556 3.513-2.162 0-3.556-1.535-3.556-3.422 0-1.936 1.352-3.647 3.556-3.647s3.513 1.616 3.556 3.556zM0.054 32v-23.112h7.112v23.112h-7.112z"></path>
  <path d="M10.614 16.79c0-2.746-0.091-5.042-0.183-7.024h6.39l0.317 3.063h0.134c0.901-1.443 3.105-3.556 6.795-3.556 4.503 0 7.879 3.014 7.879 9.496v13.231h-7.112v-12.196c0-2.834-1.078-4.996-3.556-4.996-1.887 0-2.834 1.528-3.331 2.789-0.183 0.451-0.225 1.081-0.225 1.711v12.692h-7.109v-15.21z"></path>
</svg>