<svg xmlns="http://www.w3.org/2000/svg" viewBox="0 0 32 32">
    <path fill="#8892bf" style="fill: var(--color11, #8892bf)" d="M32 16c0 8.837-7.163 16-16 16s-16-7.163-16-16c0-8.837 7.163-16 16-16s16 7.163 16 16z"></path>
    <path fill="#fff" style="fill: var(--color5, #fff)" d="M14.216 9.143h1.92l-0.543 2.885h1.725c0.946 0.020 1.651 0.232 2.115 0.634 0.473 0.403 0.612 1.168 0.418 2.296l-0.932 5.029h-1.948l0.89-4.803c0.093-0.504 0.065-0.861-0.083-1.072s-0.468-0.317-0.96-0.317l-1.544-0.015-1.141 6.208h-1.92l2.004-10.844z"></path>
    <path fill="#fff" style="fill: var(--color5, #fff)" d="M5.418 12.028l-1.99 10.829h1.934l0.529-2.87h1.67c0.566 0 1.113-0.070 1.642-0.211s1.025-0.473 1.489-0.997c0.38-0.413 0.677-0.876 0.89-1.39 0.223-0.514 0.367-1.037 0.431-1.571 0.167-1.168 0.005-2.089-0.487-2.764s-1.285-1.017-2.379-1.027h-3.729zM6.211 18.281l0.832-4.516h0.281c0.102 0 0.209-0.005 0.32-0.015 0.742-0.010 1.359 0.066 1.851 0.226 0.501 0.161 0.668 0.77 0.501 1.828-0.204 1.259-0.603 1.994-1.197 2.205-0.594 0.201-1.336 0.297-2.226 0.287h-0.195c-0.056 0-0.111-0.005-0.167-0.015z"></path>
    <path fill="#fff" style="fill: var(--color5, #fff)" d="M25.642 12.028c1.095 0.010 1.888 0.352 2.379 1.027s0.654 1.596 0.487 2.764c-0.065 0.534-0.209 1.057-0.431 1.571-0.213 0.514-0.51 0.977-0.89 1.39-0.464 0.524-0.96 0.856-1.489 0.997s-1.076 0.211-1.642 0.211h-1.67l-0.529 2.87h-1.934l1.99-10.829h3.729zM23.538 13.765l-0.832 4.516c0.056 0.010 0.111 0.015 0.167 0.015h0.195c0.89 0.010 1.633-0.085 2.226-0.287 0.593-0.211 0.993-0.946 1.197-2.205 0.167-1.057 0-1.667-0.501-1.828-0.492-0.161-1.108-0.237-1.851-0.226-0.111 0.010-0.218 0.015-0.32 0.015h-0.281z"></path>
</svg>