<svg xmlns="http://www.w3.org/2000/svg" viewBox="0 0 32 32">
  <path d="M10.064 29.003c12.076 0 18.68-10.005 18.68-18.68 0-0.284-0.006-0.567-0.019-0.849 1.282-0.927 2.396-2.083 3.275-3.399-1.177 0.523-2.442 0.875-3.771 1.034 1.355-0.813 2.396-2.099 2.887-3.632-1.269 0.752-2.674 1.299-4.169 1.594-1.198-1.276-2.904-2.074-4.792-2.074-3.626 0-6.566 2.94-6.566 6.565 0 0.515 0.058 1.016 0.17 1.497-5.456-0.274-10.295-2.887-13.532-6.859-0.564 0.97-0.889 2.097-0.889 3.3 0 2.278 1.159 4.288 2.922 5.465-1.077-0.033-2.089-0.329-2.974-0.821-0.001 0.027-0.001 0.055-0.001 0.084 0 3.18 2.263 5.834 5.267 6.436-0.551 0.15-1.132 0.231-1.731 0.231-0.423 0-0.834-0.042-1.234-0.118 0.836 2.608 3.259 4.506 6.133 4.56-2.247 1.761-5.078 2.81-8.154 2.81-0.53 0-1.052-0.030-1.566-0.091 2.906 1.862 6.356 2.949 10.064 2.949z"></path>
</svg>