<svg xmlns="http://www.w3.org/2000/svg" viewBox="0 0 32 32">
    <path d="M16.127 31.453c-5.901 0-11.591-3.255-14.408-8.881-3.889-7.77-0.97-17.124 6.646-21.298l1.326-0.726-0.396 1.459c-0.951 3.512-0.578 7.238 1.051 10.49 1.769 3.534 4.81 6.168 8.56 7.415 3.751 1.247 7.762 0.96 11.296-0.809v0c0.161-0.080 0.317-0.166 0.472-0.252l1.326-0.727-0.376 1.449c-1.199 4.422-4.231 8.131-8.32 10.179-2.306 1.154-4.759 1.7-7.176 1.701zM7.721 3.176c-6.056 4.135-8.206 12.118-4.851 18.82 3.653 7.295 12.559 10.258 19.856 6.606 3.316-1.661 5.878-4.511 7.193-7.95-3.623 1.561-7.644 1.738-11.42 0.481-4.077-1.356-7.381-4.218-9.305-8.060-1.54-3.075-2.047-6.536-1.473-9.897z"></path>
</svg>