<svg xmlns="http://www.w3.org/2000/svg" viewBox="0 0 32 32">
<path d="M15.999 11.296c-2.647 0-4.8 2.153-4.8 4.8s2.153 4.8 4.8 4.8 4.8-2.153 4.8-4.8c0-2.647-2.153-4.8-4.8-4.8z"></path>
<path d="M22.655 0h-13.311c-5.161 0-9.345 4.184-9.345 9.345v13.311c0 5.16 4.184 9.344 9.345 9.344h13.311c5.16 0 9.344-4.184 9.344-9.345v-13.311c0-5.161-4.184-9.345-9.345-9.345zM16 24.419c-4.59 0-8.323-3.734-8.323-8.323s3.734-8.323 8.323-8.323c4.589 0 8.323 3.734 8.323 8.323s-3.734 8.323-8.323 8.323zM24.506 7.795c-0.982 0-1.778-0.796-1.778-1.778s0.796-1.778 1.778-1.778 1.778 0.796 1.778 1.778c0 0.982-0.796 1.778-1.778 1.778z"></path>
</svg>